HIERARCHY
ROOT Hips
{
	OFFSET 0.000000 0.000000 0.000000
	CHANNELS 6 Xposition Yposition Zposition Xrotation Yrotation Zrotation
	JOINT LeftUpLeg_virtual
	{
		OFFSET 0.000000 0.000000 0.000000
		CHANNELS 3 Xrotation Yrotation Zrotation
		JOINT LeftUpLeg
		{
			OFFSET 13.026900 -6.336304 -1.092800
			CHANNELS 3 Xrotation Yrotation Zrotation
			JOINT LeftLeg
			{
				OFFSET 0.524474 -46.096886 9.782700
				CHANNELS 3 Xrotation Yrotation Zrotation
				JOINT LeftFoot
				{
					OFFSET -0.524474 -53.427422 -12.948200
					CHANNELS 3 Xrotation Yrotation Zrotation
					JOINT LeftToeBase
					{
						OFFSET 0.192200 -14.009700 16.364100
						CHANNELS 3 Xrotation Yrotation Zrotation
						JOINT LeftToe_End
						{
							OFFSET -1.784700 -0.561700 9.474800
							CHANNELS 3 Xrotation Yrotation Zrotation
							End Site
							{
								OFFSET 0 0 0
							}
						}
					}
				}
			}
		}
	}
	JOINT RightUpLeg_virtual
	{
		OFFSET 0.000000 0.000000 0.000000
		CHANNELS 3 Xrotation Yrotation Zrotation
		JOINT RightUpLeg
		{
			OFFSET -12.883000 -6.336304 -1.092800
			CHANNELS 3 Xrotation Yrotation Zrotation
			JOINT RightLeg
			{
				OFFSET -0.524587 -46.096825 9.782800
				CHANNELS 3 Xrotation Yrotation Zrotation
				JOINT RightFoot
				{
					OFFSET 0.524587 -53.427383 -12.948300
					CHANNELS 3 Xrotation Yrotation Zrotation
					JOINT RightToeBase
					{
						OFFSET -0.192200 -14.009700 16.364100
						CHANNELS 3 Xrotation Yrotation Zrotation
						JOINT RightToe_End
						{
							OFFSET 1.784700 -0.561700 9.474800
							CHANNELS 3 Xrotation Yrotation Zrotation
							End Site
							{
								OFFSET 0 0 0
							}
						}
					}
				}
			}
		}
	}
	JOINT Spine_virtual
	{
		OFFSET 0.000000 0.000000 0.000000
		CHANNELS 3 Xrotation Yrotation Zrotation
		JOINT Spine
		{
			OFFSET 0.072000 7.257294 -0.789700
			CHANNELS 3 Xrotation Yrotation Zrotation
			JOINT Spine1
			{
				OFFSET 0.000000 12.508769 -0.658067
				CHANNELS 3 Xrotation Yrotation Zrotation
				JOINT Spine1_split
				{
					OFFSET 0.000000 12.508769 -0.658067
					CHANNELS 3 Xrotation Yrotation Zrotation
					JOINT Spine2
					{
						OFFSET 0.000000 12.508769 -0.658067
						CHANNELS 3 Xrotation Yrotation Zrotation
						JOINT Neck_virtual
						{
							OFFSET 0.000000 0.000000 0.000000
							CHANNELS 3 Xrotation Yrotation Zrotation
							JOINT Neck
							{
								OFFSET 0.000000 14.033295 7.520400
								CHANNELS 3 Xrotation Yrotation Zrotation
								JOINT Head
								{
									OFFSET 0.000000 8.198502 5.703100
									CHANNELS 3 Xrotation Yrotation Zrotation
									JOINT HeadTop_End
									{
										OFFSET 0.000000 17.760803 13.332701
										CHANNELS 3 Xrotation Yrotation Zrotation
										End Site
										{
											OFFSET 0 0 0
										}
									}
								}
							}
						}
						JOINT LeftShoulder_virtual
						{
							OFFSET 0.000000 0.000000 0.000000
							CHANNELS 3 Xrotation Yrotation Zrotation
							JOINT LeftShoulder
							{
								OFFSET 6.292450 5.785301 -0.669000
								CHANNELS 3 Xrotation Yrotation Zrotation
								JOINT LeftShoulder_split
								{
									OFFSET 6.292450 5.785301 -0.669000
									CHANNELS 3 Xrotation Yrotation Zrotation
									JOINT LeftArm
									{
										OFFSET 13.907140 -6.093903 1.965100
										CHANNELS 3 Xrotation Yrotation Zrotation
										JOINT LeftForeArm
										{
											OFFSET 34.140198 0.000000 0.000000
											CHANNELS 3 Xrotation Yrotation Zrotation
											JOINT LeftHand
											{
												OFFSET 40.960209 0.000000 0.000000
												CHANNELS 3 Xrotation Yrotation Zrotation
												End Site
												{
													OFFSET 0 0 0
												}
											}
										}
									}
								}
							}
						}
						JOINT RightShoulder_virtual
						{
							OFFSET 0.000000 0.000000 0.000000
							CHANNELS 3 Xrotation Yrotation Zrotation
							JOINT RightShoulder
							{
								OFFSET -6.292450 5.785301 -0.669000
								CHANNELS 3 Xrotation Yrotation Zrotation
								JOINT RightShoulder_split
								{
									OFFSET -6.292450 5.785301 -0.669000
									CHANNELS 3 Xrotation Yrotation Zrotation
									JOINT RightArm
									{
										OFFSET -13.907140 -6.093903 1.965100
										CHANNELS 3 Xrotation Yrotation Zrotation
										JOINT RightForeArm
										{
											OFFSET -34.140198 0.000000 0.000000
											CHANNELS 3 Xrotation Yrotation Zrotation
											JOINT RightHand
											{
												OFFSET -40.960209 0.000000 0.000000
												CHANNELS 3 Xrotation Yrotation Zrotation
												End Site
												{
													OFFSET 0 0 0
												}
											}
										}
									}
								}
							}
						}
					}
				}
			}
		}
	}
}
MOTION
Frames: 4
Frame Time: 0.03333333
8.595918 93.096359 -11.040936 0.000000 0.000000 0.000000 8.762035 -43.987880 11.901973 -38.804077 3.393433 18.031095 38.885213 -21.199647 -1.819681 -2.166917 2.052423 -11.361787 0.254819 -2.747903 -1.338726 0.000000 0.000000 0.000000 4.923336 -40.816145 9.433282 -33.661754 -2.879245 -33.588336 42.595645 12.394728 -0.408512 -11.614158 -4.672330 32.677066 1.236794 5.795041 -13.352841 0.000000 0.000000 0.000000 1.769038 -37.451662 6.284117 4.193830 0.938659 -5.780349 9.547909 -7.716782 -4.789348 0.660004 -0.910338 0.388447 0.000000 0.000000 0.000000 9.278569 -4.531066 -4.773636 -32.423997 32.853640 12.358993 -16.451706 55.429396 23.063107 0.000000 0.000000 0.000000 13.030883 -7.740664 -5.746989 0.042513 -9.906163 8.076397 -12.791011 1.463263 0.477448 -17.339994 14.748235 -54.106095 26.113898 -42.339291 25.409385 0.000000 0.000000 0.000000 14.358833 -4.906952 -4.533246 -6.912077 2.679760 -12.090107 4.403866 3.137212 5.569442 -49.532071 -1.070394 43.646985 -172.157787 76.212624 170.018175 0.000000 0.000000 0.000000 
5.954212 93.709312 -10.012981 0.000000 0.000000 0.000000 8.552816 -43.244731 11.409761 -38.768140 4.075633 20.070437 38.723959 -22.474994 -1.725178 -1.154533 1.919208 -10.462549 1.057026 -2.683883 -1.829053 0.000000 0.000000 0.000000 6.483600 -40.456614 10.322448 -31.859206 -1.512133 -31.707241 43.534714 12.786269 -1.158656 -12.789332 -4.133952 29.284685 1.670235 5.942116 -13.445651 0.000000 0.000000 0.000000 1.217905 -36.393225 6.514500 3.409644 0.369517 -6.224176 9.322016 -7.863885 -5.128912 0.235985 -0.923527 0.178407 0.000000 0.000000 0.000000 8.819413 -4.479093 -5.317187 -32.401079 32.737151 12.069055 -18.075530 55.883932 22.818868 0.000000 0.000000 0.000000 12.592180 -7.678241 -6.049065 0.277316 -9.397542 9.077728 -14.138267 1.034946 0.711861 -20.081415 13.071708 -53.529118 28.306105 -44.161073 26.966997 0.000000 0.000000 0.000000 13.802733 -5.040289 -4.778633 -7.875959 -0.140875 -13.403061 4.819889 2.772258 7.406944 -50.410447 -2.342416 43.172868 -173.369134 72.501488 171.598422 0.000000 0.000000 0.000000 
1.415745 94.682266 -8.693340 0.000000 0.000000 0.000000 8.939239 -42.192466 11.811480 -37.032900 4.416379 21.664240 37.090113 -22.970780 -1.696592 -1.435194 3.027627 -10.645083 0.077505 -2.545234 -2.179409 0.000000 0.000000 0.000000 7.930318 -39.964793 11.509458 -33.533592 1.480587 -30.610213 48.802689 16.469241 -3.578164 -8.355832 -0.861213 33.634006 -5.434030 6.669447 -13.364448 0.000000 0.000000 0.000000 2.017230 -34.742307 7.632630 2.560522 -0.399004 -6.871251 8.785817 -7.921968 -6.014887 -0.032993 -0.639402 0.017773 0.000000 0.000000 0.000000 8.469390 -4.418781 -6.247668 -32.901038 32.226711 11.763353 -22.978896 56.856653 24.173429 0.000000 0.000000 0.000000 11.708537 -7.444518 -6.662837 0.344411 -7.658546 9.589869 -14.144824 0.135388 0.210658 -25.361525 12.535908 -50.226264 29.453026 -48.755232 27.404145 0.000000 0.000000 0.000000 12.969902 -5.296080 -5.524627 -9.051464 -3.364070 -15.709917 5.470674 3.370813 10.113048 -52.628322 -6.044581 42.077124 -173.134244 66.285019 172.312368 0.000000 0.000000 0.000000 
-4.158764 95.448593 -7.743954 0.000000 0.000000 0.000000 9.608585 -40.677082 12.747186 -34.239684 4.795894 22.575696 35.375052 -22.823125 -1.406014 -2.845287 5.030402 -12.084853 -0.808975 -2.396905 -2.622233 0.000000 0.000000 0.000000 8.698272 -38.682517 12.576321 -38.376770 5.770291 -30.547758 57.412070 21.445093 -7.463145 -1.676864 4.028543 41.697871 -13.405234 6.978694 -12.620947 0.000000 0.000000 0.000000 4.125670 -32.666554 9.601100 1.929904 -1.265125 -7.560967 8.082897 -7.938363 -7.208022 -0.014869 -0.361898 0.018774 0.000000 0.000000 0.000000 8.272921 -4.367037 -7.397627 -33.581182 31.474249 11.564424 -30.394676 57.588467 27.033293 0.000000 0.000000 0.000000 10.629838 -7.108703 -7.436562 0.127005 -5.224619 9.583688 -13.276068 -1.169957 -0.302724 -31.981347 13.695698 -44.273932 31.038504 -56.168201 28.211342 0.000000 0.000000 0.000000 11.898334 -5.580795 -6.573277 -10.297895 -6.223490 -18.362238 6.762348 4.553807 11.865805 -56.159588 -10.567092 39.686548 -172.028928 60.329312 172.575029 0.000000 0.000000 0.000000 
